<?xml version="1.0" encoding="utf-8"?>
<!-- Generator: Adobe Illustrator 21.0.0, SVG Export Plug-In . SVG Version: 6.00 Build 0)  -->
<svg version="1.1" id="Layer_1" xmlns="http://www.w3.org/2000/svg" xmlns:xlink="http://www.w3.org/1999/xlink" x="0px" y="0px"
	 viewBox="0 0 100 100" style="enable-background:new 0 0 100 100;" xml:space="preserve">
<g id="Shape_32">
	<path d="M54.2,12.9c0.4,0.6,0.5,1.2,0.6,1.9c0.1,0.7,0,1.3-0.2,1.9c-0.1,0.6-0.6,1.1-0.9,1.7c-0.1,0.2-0.3,0.4-0.4,0.6
		c-0.1,0.1-0.1,0.3-0.2,0.5c-0.2,0.2-0.3,0.5-0.6,0.6c-0.4,0.3-0.3,0.7-0.3,1c0.1,0.5,0.2,0.9,0.2,1.4c0,0.5,0,1.1,0.1,1.6
		c0.1,0.7,0.1,1.4,0.2,2.2c0,0.4,0.1,0.8,0.2,1.2c0,0.1,0,0.2,0,0.3c-0.1,0.9,0.1,1.8,0.2,2.7c0,0.2,0,0.4,0.1,0.6
		c0.1,0.7,0.2,1.5,0.2,2.2c0,0.1,0,0.2,0,0.2c0.1,0.6,0.1,1.2,0.2,1.8c0,0.1-0.1,0.2-0.1,0.3c-0.1-0.1-0.3-0.1-0.3-0.2
		c0-0.3,0-0.6-0.1-0.9c0-0.3,0.1-0.6-0.2-0.8c0,0,0-0.1,0-0.2c0-0.4,0-0.8,0-1.1c0-0.5-0.1-1-0.2-1.5c-0.1-0.3-0.1-0.5-0.1-0.8
		c0-0.9-0.1-1.7-0.2-2.5c0-0.3,0-0.5,0-0.8c0-0.2,0-0.4-0.1-0.5c0,0,0-0.1-0.1-0.1c-0.3-0.1-0.3-0.4-0.3-0.7c0-0.1,0.1-0.3,0.1-0.4
		c0-0.1,0.1-0.3,0-0.3c-0.2-0.4-0.2-0.7-0.2-1.1c0,0,0-0.1,0-0.1c0-0.1-0.1-0.2-0.1-0.3c0,0-0.1,0-0.1,0c0,0.1,0,0.2,0,0.3
		c0,0.2,0,0.3,0,0.5c0,0.2,0,0.5,0.1,0.7c0,0.3-0.1,0.4-0.4,0.4c0,0-0.1,0-0.2,0.1c0,0.1,0,0.2,0.1,0.2c0.3,0.1,0.3,0.4,0.3,0.7
		c0,0.2-0.1,0.2-0.2,0.2c-0.4-0.1-0.4,0-0.5,0.3c0,0.1,0,0.2-0.1,0.3C51,26.7,51,26.9,51,27.1c0,0.3,0,0.5,0,0.8c0,0,0,0,0,0.1
		c0,0-0.1,0-0.1-0.1c0-0.5-0.1-0.9,0.1-1.3c0.1-0.2,0.1-0.4,0.1-0.6c0-0.2,0.1-0.4,0.1-0.6c0-0.1,0-0.3-0.1-0.4
		c-0.2-0.1-0.4,0-0.5,0.2c0,0.1-0.1,0.3-0.2,0.4c0-0.2-0.1-0.3-0.1-0.5c0-0.2,0.1-0.4,0-0.6c0-0.5-0.1-1-0.2-1.5
		c0-0.3,0.1-0.3,0.3-0.3c0.1,0,0.2,0.1,0.2-0.1c0-0.3-0.1-0.1-0.3-0.1c-0.1,0-0.2,0.1-0.3,0.1c-0.2-0.1-0.3,0-0.3,0.2
		c0.1,0.4,0.1,0.8,0.2,1.2c0,0.1,0,0.1,0,0.2c0,0.7,0,1.5,0.1,2.2c0,0.1,0,0.1,0,0.2c0.2,0.2,0.2,0.4,0.2,0.6c0,0.6,0,1.3,0.1,1.9
		c0,0.9,0.1,1.7,0.2,2.6c0.1,0.9,0.3,1.7,0.2,2.6c0,0.4,0.1,0.9,0.2,1.3c0,0.1,0.1,0.2,0.2,0.3c0.1-0.1,0.1-0.1,0.2-0.2
		c0.1-0.2,0.2-0.4,0.5-0.5c0.4-0.1,0.4-0.5,0.3-1c0-0.1,0-0.3,0-0.4c0,0,0.1-0.1,0.1-0.1c0,0.1,0.1,0.1,0.1,0.2c0,0.1,0,0.2,0,0.3
		c0,0.3,0,0.6,0,0.8c0,0.1,0,0.2-0.1,0.2c-0.4,0.2-0.9,0.7-0.9,1.2c0,0.5,0.2,1,0.6,1.4c0.3,0.3,0.9,0.4,1.3,0.2
		c0.5-0.2,0.8-0.6,0.9-1.1c0-0.1,0.1-0.1,0.1-0.2c0,0.1,0.1,0.1,0.1,0.2c0,0.2,0.2,0.2,0.3,0.2c0.2,0,0.3,0,0.5,0
		c0.4,0.1,0.9,0.1,1.3,0.2c0.1,0,0.2,0,0.3,0c0.3,0,0.6-0.1,0.9,0.2c0,0,0.1,0,0.2,0c0.5,0,0.9,0,1.4,0.1c0.1,0,0.3-0.1,0.3-0.1
		c0-0.1,0-0.3,0-0.4c0,0-0.2,0-0.2,0c-0.2,0-0.4-0.1-0.6-0.2c-0.2-0.1-0.4-0.1-0.7-0.2c-0.6,0-1.2,0-1.8-0.1c0,0-0.1,0-0.1,0
		c-0.5-0.4-1-0.2-1.5-0.2c-0.2,0-0.4,0-0.5-0.2c0,0-0.1-0.1-0.1-0.2c0.1,0,0.1-0.1,0.2-0.1c0.4,0,0.8,0,1.2,0.1c0.5,0,1,0.1,1.5,0.1
		c0.7,0,1.4,0.1,2.1,0.1c0.3,0,0.6-0.2,0.7-0.4c0.1-0.1,0.2-0.2,0.4-0.1c0.1,0,0.2,0,0.4,0c0.4-0.1,0.8,0.3,0.8,0.7c0,0,0,0.1,0,0.1
		c0,0.7,0,0.7,0.7,0.8c0.8,0.1,1.6,0.3,2.4,0.4c0.3,0,0.6,0,1,0.1c0.6,0.1,1.2,0.2,1.8,0.3c0.3,0,0.7,0.1,1,0.1
		c0.4,0.1,0.8,0.2,1.1,0.2c0.6,0,1.2,0.1,1.7,0c0.3-0.1,0.6-0.2,1-0.2c0.3,0,1,0.6,1,0.9c0,0,0,0,0,0.1c-0.3,0.2-0.1,0.6-0.3,0.9
		c-0.2,0.2-0.4,0.4-0.7,0.4c-0.4,0-0.8,0-1.2-0.2c0,0-0.1,0-0.1-0.1c-0.2-0.3-0.5-0.3-0.8-0.3c-0.5,0-1,0-1.4-0.2
		c-0.1-0.1-0.3-0.1-0.5-0.1c-0.6,0.1-1.1-0.1-1.6-0.2c-0.5-0.1-1-0.2-1.5-0.2c-0.3,0-0.6,0-0.9-0.1c-0.2,0-0.4-0.1-0.7-0.2
		c-0.3-0.1-0.6-0.1-0.9-0.1c-0.2,0-0.5-0.1-0.7-0.1c-0.4-0.1-0.6,0.1-0.6,0.5c0,0,0,0.1,0,0.1c0,0.1-0.1,0.1-0.1,0.2
		c-0.1,0-0.1-0.1-0.2-0.1c-0.2-0.2-0.4-0.1-0.6-0.1c-0.2,0-0.2-0.1-0.1-0.2c0,0,0-0.1,0.1-0.1c0.1-0.1,0.2-0.1,0.3-0.2
		c0.1,0,0.1,0.1,0.2,0.2c0,0,0,0.1,0.1,0.1c0,0,0-0.1,0-0.1c0-0.1,0.1-0.2,0.1-0.3c0-0.2,0-0.4-0.3-0.3c-0.1,0-0.2,0-0.2,0
		c-0.2,0-0.2-0.1-0.2-0.2c0.1-0.6,0.3-0.7,0.9-0.6c0.3,0,0.2-0.2,0.2-0.2C60.8,37.3,61,37,61,36.8c0-0.2-0.1-0.3-0.4-0.3
		c0,0-0.1,0-0.1,0c0-0.1,0-0.2,0-0.2c0.1-0.1,0.2-0.1,0.3-0.2c-0.1,0-0.3-0.1-0.4-0.1c-0.2,0-0.4,0-0.2,0.3c0,0-0.1,0.1-0.1,0.2
		c0,0.4,0,0.8,0,1.2c0,0.1,0.1,0.2,0,0.3c-0.3,0.4-0.2,0.9-0.3,1.3c-0.1,0.2-0.3,0.4-0.4,0.6c0,0-0.1,0-0.2-0.1
		c-0.2-0.5-0.2-0.5-0.8-0.5c-0.1,0-0.2,0-0.2,0c-0.4-0.2-0.8-0.2-1.2-0.2c-0.5-0.1-1-0.1-1.4-0.3c-0.2-0.1-0.4-0.1-0.6-0.1
		c-0.2,0-0.5,0-0.7,0c-0.2,0-0.3,0-0.2,0.3c0.1,0.2,0.1,0.5,0.1,0.8c0.1,1.1,0.1,2.1,0.2,3.2c0,0.4,0.2,0.9,0.2,1.3
		c0,0.3,0,0.6,0.1,0.9c0.1,1.1,0.1,2.2,0.2,3.3c0,0.4,0.1,0.9,0.1,1.3c0,0.8,0.1,1.6,0.1,2.4c0,0.3,0,0.6,0.2,0.8c0,0,0,0.1,0,0.1
		c0,0.3,0,0.7,0.1,1c0.1,1,0.1,2.1,0.2,3.1c0.1,0.9,0.2,1.7,0.2,2.6c0,0.5,0,1.1,0.1,1.6c0.1,0.6,0.2,1.1,0.2,1.7c0,0.2,0,0.5,0,0.7
		c0.1,0.6,0.1,1.3,0.2,1.9c0,0.1,0,0.1,0,0.2c0,0.5,0,1,0.1,1.5c0.4,1.6,0.1,3.2,0.2,4.7c0,0.4,0.1,0.7,0.1,1.1c0,0.3-0.1,0.6,0,0.9
		c0,0.1,0.1,0.3,0.1,0.4c0,0,0.2,0,0.2,0c0-0.6,0.3-1,0.4-1.6c0.1-0.4,0.2-0.7,0.3-1.1c0.2-0.7,0.3-1.3,0.5-2
		c0.2-0.6,0.4-1.2,0.6-1.8c0.1-0.4,0.2-0.9,0.3-1.3c0.1-0.3,0.2-0.7,0.3-1c0-0.1,0-0.3,0.1-0.4c0.1-0.3,0.2-0.5,0.3-0.8
		c0-0.1,0.2-0.2,0.3-0.2c0.3,0.1,0.6,0.2,0.9,0.3c0.2,0.1,0.1,0.4-0.1,0.4c0,0-0.1,0-0.1,0c-0.1-0.2-0.3-0.3-0.5-0.2
		c-0.1,0-0.1,0.1-0.1,0.1c0,0,0.1,0.1,0.1,0.1c0.4-0.1,0.4,0.2,0.4,0.4c0,0.3-0.1,0.6-0.2,0.8c-0.1,0.5-0.2,1.1-0.3,1.6
		c0,0.1-0.1,0.1-0.1,0.2c0,0,0-0.1,0-0.1c0-0.2,0-0.5-0.3-0.4c0,0-0.1-0.1-0.1-0.1c0-0.1-0.1-0.2-0.1-0.2c0,0.1,0,0.2,0,0.3
		c0,0.1,0.1,0.1,0.2,0.2c0.1,0.1,0.1,0.2,0.1,0.3c0,0.2,0,0.4,0,0.6c0,0.2,0,0.5,0.1,0.7c0,0,0,0.1,0,0.1c0,0-0.1-0.1-0.1-0.1
		c-0.1-0.1-0.1-0.3-0.3-0.2c-0.1,0-0.1,0.2-0.1,0.2c0.2,0.6,0.1,1.1-0.1,1.6C59,70.7,59,70.9,59,71c0,0.1,0,0.2-0.1,0.2
		c-0.2,0.3-0.3,0.6-0.3,0.9c0,0.3-0.1,0.5-0.2,0.7c-0.1,0.3-0.2,0.7-0.2,1c0,0.2-0.1,0.4-0.1,0.5c0,0.1,0.3,0.4,0.4,0.4
		c0,0,0-0.1,0-0.2c0-0.1,0-0.3,0.1-0.4c0,0,0.1-0.1,0.1-0.1c0,0.1,0.1,0.1,0.1,0.2c0,0.5,0.3,0.7,0.7,0.9c0.1,0,0.2,0.2,0.2,0.3
		c0,0.5-0.1,1-0.3,1.5c-0.1,0.2-0.1,0.5-0.1,0.8c0,0.2,0.5,0.3,0.7,0.2c0,0,0.1-0.1,0.1-0.1c0.2-0.3,0.5-0.2,0.9-0.1
		c0.2,0.1,0.3,0.2,0.2,0.4c0,0.3,0,0.7,0,1c-0.1,0.4-0.2,0.8-0.6,1c-0.4,0.2-0.8,0-0.9-0.5c-0.1-0.3-0.4-0.3-0.6-0.4
		c-0.1,0-0.3,0.1-0.3,0.3c-0.2,0.5-0.3,1-0.5,1.5c-0.1,0.2-0.1,0.4-0.2,0.6c-0.1,0.2-0.5,0.3-0.7,0.1c-0.3-0.2-0.3-0.5-0.2-0.8
		c0.2-0.4,0.4-0.8,0.3-1.3c0,0,0-0.1,0-0.1c0.3-0.2,0.3-0.6,0.3-0.9c0,0,0-0.1,0-0.1c0.4-0.3,0.1-0.8,0.3-1.1c0-0.1,0.1-0.3-0.1-0.3
		c0,0-0.1-0.1-0.1-0.1c0,0,0.1-0.1,0.1-0.1c0.4,0.1,0.3-0.2,0.4-0.4c0-0.1,0-0.3,0-0.4c0-0.3,0.1-0.4,0.4-0.4c0.1,0,0.1-0.1,0.2-0.1
		c-0.1-0.1-0.1-0.1-0.2-0.2c-0.5-0.2-0.8-0.1-0.8,0.4c0,0.2,0,0.4-0.1,0.6c-0.3,0.4-0.2,0.9-0.4,1.3c-0.1,0.4-0.3,0.9-0.4,1.3
		c-0.2,0.7-0.4,1.4-0.5,2.1c0,0.1,0,0.2,0,0.3c0,0.4,0.2,0.8-0.1,1.2c-0.2,0.4-0.2,0.8-0.2,1.2c0,0.1,0,0.1-0.1,0.2
		c0,0-0.1-0.1-0.1-0.1c0-0.4-0.1-0.8-0.1-1.2c0-0.1,0-0.1,0-0.2c0,0,0.1,0.1,0.1,0.1c0,0,0.1,0.1,0.1,0.1c0,0,0-0.1,0-0.1
		c0-0.2,0-0.4-0.1-0.6c0-0.1-0.3,0-0.4,0.1c-0.1,0.4-0.3,0.8-0.4,1.2c-0.1,0.3-0.2,0.6-0.3,0.9c0,0.2-0.1,0.3-0.1,0.5
		c0,0.3-0.1,0.5-0.2,0.8c-0.2,0.3-0.2,0.7-0.3,1c-0.1,0.4-0.1,0.7-0.2,1.1c0,0,0,0.1,0,0.1c0,0.2,0.1,0.3,0.2,0.4c0,0,0,0.1,0.1,0.1
		c0,0,0.1-0.1,0.1-0.1c0-0.1,0.1-0.2,0.1-0.2c-0.1-0.5,0.2-0.9,0.3-1.3c0-0.1,0-0.2,0-0.3c0-0.1,0-0.3,0.2-0.2c0,0,0.1-0.1,0.1-0.1
		c0-0.3,0-0.6,0.1-0.8c0.1-0.3,0.2-0.6,0.2-0.9c0,0,0.1-0.1,0.1-0.1c0,0,0.1,0.1,0.1,0.1c0,0.3-0.1,0.6-0.1,0.8
		c-0.1,0.3-0.1,0.5-0.2,0.8c-0.3,0.4-0.1,0.9-0.4,1.4c-0.2,0.2-0.1,0.6-0.2,0.8c-0.1,0.3,0,0.6-0.2,0.9c-0.2,0.3-0.2,0.6-0.3,0.9
		c-0.1,0.5-0.2,1-0.4,1.5c-0.2,0.7-0.5,1.3-0.8,1.9c-0.3,0.6-0.6,1.1-0.8,1.6c-0.2,0.4-0.3,0.7-0.5,1.1c-0.1,0.1-0.3,0.2-0.4,0.2
		c-0.1,0-0.1-0.2-0.1-0.4c0.1-0.4,0.1-0.9,0.2-1.3c0.1-0.5,0.2-1,0.2-1.5c0-0.3,0-0.6,0.1-0.8c0.1-0.6,0.2-1.3,0.2-1.9
		c0-0.5,0.3-1,0.4-1.5c0.1-0.4,0.2-0.8,0.3-1.3c0-0.2,0.1-0.4,0.2-0.7c0.2-0.6,0.3-1.1,0.5-1.7c0.1-0.5,0.2-1,0.3-1.5
		c0.1-0.3,0.1-0.5,0.2-0.8c0,0,0-0.1,0-0.1c0.2-0.2,0.2-0.4,0.2-0.6c0-0.2,0.1-0.5,0.2-0.7c0.1-0.3,0-0.6-0.3-0.7
		c-0.3-0.1-0.3-0.2-0.3-0.5c-0.1-0.9-0.1-1.7-0.2-2.6c0-0.4-0.1-0.9-0.1-1.3c0-0.8,0-1.6-0.1-2.4c-0.1-0.9-0.2-1.7-0.2-2.6
		c-0.1-1.1-0.2-2.2-0.2-3.3c0-0.6-0.1-1.2-0.2-1.8c0-0.2,0-0.4,0-0.6c-0.1-0.5-0.1-0.9-0.2-1.4c0-0.1,0-0.1,0-0.2c0-0.5,0-1.1,0-1.6
		c0-0.5-0.1-1.1-0.2-1.6c0,0,0-0.1,0-0.1c0-0.4,0-0.7-0.1-1.1c-0.1-0.9-0.2-1.8-0.2-2.8c0-0.5-0.1-0.9-0.1-1.4c0-0.9,0-1.8-0.1-2.7
		c-0.2-0.8-0.1-1.6-0.2-2.4c-0.1-0.3,0-0.6-0.1-1c0-0.8,0-1.6-0.1-2.5c-0.1-0.8-0.2-1.5-0.2-2.3c0-0.6-0.1-1.3-0.2-1.9
		c-0.1-1-0.1-2-0.2-3c-0.1-0.7-0.1-1.4-0.2-2.1c0-0.2-0.1-0.3-0.3-0.3c-0.4,0-0.8-0.1-1.2-0.2c-0.2,0-0.4-0.1-0.6-0.1
		c-0.7-0.1-1.4-0.1-2.1-0.3c-0.5-0.2-1.1-0.1-1.6-0.2c-0.2-0.1-0.4-0.1-0.7-0.2c-0.3,0-0.5,0.1-0.6,0.4c-0.1,0.4-0.3,0.7-0.4,1.1
		c-0.1,0.4-0.2,0.7-0.3,1.1c-0.1,0.3-0.2,0.7-0.4,1c-0.2,0.2-0.2,0.5-0.2,0.8c-0.1,0.5-0.3,0.9-0.5,1.4c-0.3,0.9-0.5,1.7-0.8,2.6
		c-0.2,0.6-0.4,1.1-0.6,1.7c-0.2,0.6-0.3,1.1-0.5,1.7c-0.1,0.3-0.2,0.6-0.3,0.9c-0.1,0.4-0.3,0.8-0.4,1.3c-0.1,0.4-0.3,0.7-0.4,1.1
		c-0.1,0.3-0.2,0.7-0.3,1c-0.1,0.3-0.1,0.6-0.2,0.8c-0.2,0.5-0.4,1.1-0.6,1.6c0,0.1,0,0.2-0.1,0.3c-0.1,0.4-0.3,0.8-0.4,1.3
		c-0.2,0.6-0.3,1.2-0.5,1.7c-0.2,0.4-0.3,0.9-0.4,1.3c-0.2,0.4-0.3,0.7-0.4,1.1c0,0.1,0,0.2,0,0.3c-0.2,0.8-0.5,1.6-0.7,2.4
		c-0.3,0.9-0.6,1.7-0.9,2.6c-0.2,0.7-0.5,1.4-0.7,2.2c-0.2,0.7-0.5,1.3-0.7,2c-0.2,0.7-0.4,1.3-0.7,2c-0.2,0.6-0.4,1.2-0.6,1.8
		c-0.2,0.5-0.4,1.1-0.6,1.6c-0.1,0.4-0.2,0.9-0.3,1.3c-0.1,0.2-0.1,0.5-0.2,0.7c-0.2,0.5-0.3,1.1-0.5,1.6c-0.2,0.5-0.4,1-0.6,1.6
		c-0.1,0.3-0.2,0.7-0.3,1c-0.1,0.4-0.3,0.7-0.4,1.1c-0.1,0.4-0.2,0.8-0.4,1.1c-0.1,0.3-0.2,0.5-0.2,0.8c0,0-0.1,0.1-0.1,0.1
		c0,0-0.1-0.1-0.1-0.1c0-0.1,0-0.2,0-0.2c0-1.7,0-3.4,0-5.1c0-0.6,0.1-1.2,0.2-1.8c0-0.3,0-0.6,0.1-0.8c0.2-0.4,0.1-0.9,0.2-1.4
		c0.1-0.6,0.2-1.2,0.4-1.7c0,0,0,0,0,0c-0.1-0.4,0.2-0.7,0.2-1.1c0.1-0.5,0.2-1,0.3-1.5c0.1-0.5,0.2-0.9,0.4-1.4
		c0-0.2,0.1-0.3,0.1-0.5c0.1-0.6,0.2-1.2,0.4-1.8c0.1-0.2,0.1-0.6,0.2-0.8c0.1-0.3,0.2-0.6,0.3-0.9c0.2-0.7,0.4-1.3,0.6-2
		c0.2-0.6,0.4-1.1,0.6-1.7c0.2-0.6,0.4-1.3,0.6-1.9c0.2-0.6,0.4-1.2,0.6-1.7c0.3-0.8,0.5-1.6,0.8-2.4c0.2-0.5,0.3-1,0.5-1.5
		c0.2-0.6,0.4-1.1,0.6-1.7c0.1-0.4,0.2-0.8,0.4-1.2c0.1-0.5,0.3-0.9,0.4-1.4c0.1-0.2,0.2-0.4,0.3-0.6c0.2-0.5,0.3-1,0.5-1.5
		c0.2-0.6,0.4-1.1,0.6-1.7c0.1-0.3,0.2-0.7,0.3-1c0.1-0.4,0.3-0.8,0.4-1.2c0.1-0.3,0.2-0.6,0.2-0.9c0,0,0-0.1,0-0.1
		c0.2-0.6,0.4-1.1,0.6-1.7c0.2-0.6,0.4-1.2,0.6-1.8c0.2-0.6,0.4-1.2,0.6-1.8c0.3-0.8,0.5-1.7,0.8-2.5c0.2-0.7,0.5-1.4,0.7-2
		c0.1-0.4,0.3-0.9,0.4-1.3c0.2-0.7,0.4-1.4,0.7-2.1c0.3-0.5,0.4-1.1,0.6-1.7c0.2-0.4,0.2-0.8,0.4-1.1c0.1-0.2,0.2-0.5,0.3-0.7
		c0.1-0.4,0.3-0.8,0.4-1.2c0.1-0.4,0.3-0.9,0.4-1.3c0.2-0.5,0.3-0.9,0.5-1.4c0.2-0.6,0.4-1.2,0.5-1.8c0.1-0.2,0.1-0.4,0.2-0.6
		c0-0.1,0-0.2-0.1-0.3c-0.8-0.6-1.1-1.5-1.3-2.4c-0.1-0.2-0.1-0.5-0.2-0.7c0-0.2,0-0.4,0.1-0.6c0,0,0-0.1,0-0.1
		c0.3,0.1,0.2-0.2,0.2-0.3c0-0.8,0.1-1.5,0.4-2.2c0.2-0.5,0.5-0.9,0.8-1.3c0.5-0.6,1.1-1,1.8-1.4c0.4-0.2,0.8-0.2,1.3-0.4
		c0.1,0,0.2-0.2,0.2-0.3c0-0.5,0-1,0.1-1.5c0-0.4,0.1-0.8,0.2-1.1c0.1-0.5,0.1-1,0.2-1.4c0.1-0.4,0.1-0.9,0.3-1.3
		C49.8,4.2,50.1,4,50.5,4c0.4,0,0.7,0.1,1,0.3c0.3,0.2,0.3,0.5,0.3,0.9c0,0.3,0,0.6-0.1,0.9c-0.2,0.9-0.1,1.9-0.4,2.9
		c-0.1,0.3-0.1,0.6-0.1,0.9c0,0.3-0.1,0.4-0.4,0.2c-0.2-0.1-0.5-0.2-0.8-0.2c0,0-0.1,0-0.1,0c0,0,0,0.1,0.1,0.1
		c0.2,0.1,0.3,0.2,0.6,0.3c0.3,0,0.6,0.2,0.9,0.4c0.4,0.2,0.8,0.4,1.1,0.7C53.3,11.7,53.8,12.2,54.2,12.9 M58.7,69.1
		C58.6,69.1,58.6,69.1,58.7,69.1c-0.2,0.1-0.3,1-0.2,1.1c0.1,0.1,0.2,0.2,0.3,0.2c0-0.1,0.1-0.2,0.1-0.3
		C58.6,69.9,58.7,69.5,58.7,69.1c0.2-0.3,0.3-0.5,0.4-0.8c0.1-0.3,0.1-0.5,0.1-0.8c0,0,0-0.1,0-0.1c0,0-0.1,0-0.1,0.1
		c0,0.1,0,0.1,0,0.2c0,0.2,0,0.5-0.1,0.7C58.7,68.6,58.7,68.9,58.7,69.1 M45.5,31.4c-0.2,0.5-0.3,0.9-0.5,1.4
		c-0.2,0.6-0.4,1.2-0.6,1.8c-0.1,0.2,0,0.4,0.2,0.4c0.4,0.1,0.9,0.1,1.3,0.2c0.3,0,0.7,0,1,0.1c0.6,0.2,1.3,0.1,1.9,0.3
		c0.5,0.1,1,0.1,1.5,0.2c0.3,0.1,0.2-0.1,0.2-0.2c0-0.4-0.1-0.7-0.1-1.1c0-0.5,0-1.1-0.1-1.6c0-0.1,0-0.1,0-0.2
		c-0.1-0.3-0.2-0.5-0.2-0.8c0-0.9,0-1.7-0.2-2.6c-0.1-0.5-0.1-1-0.1-1.5c-0.1-0.6-0.1-1.3-0.2-1.9c-0.1-0.9-0.2-1.8-0.2-2.7
		c0-0.2-0.1-0.3-0.3-0.3c-0.1,0-0.3-0.1-0.4,0c-0.2,0-0.4-0.1-0.5,0.2c-0.2,0.5-0.3,1-0.5,1.4c-0.2,0.4-0.3,0.9-0.5,1.3
		c-0.1,0.3-0.2,0.7-0.3,1c-0.1,0.3-0.2,0.6-0.3,0.9c-0.1,0.4-0.3,0.8-0.4,1.3c0,0.1-0.1,0.3-0.1,0.4c-0.1,0.3-0.1,0.6-0.2,0.8
		c-0.3,0.3-0.1,0.7-0.4,1C45.5,31.1,45.5,31.2,45.5,31.4 M46.9,16.6c0-0.2,0-0.3,0.1-0.5c0.1-0.1,0.2-0.3,0.3-0.3
		c0.4,0,0.8,0.3,0.9,0.7c0.1,0.3,0.2,0.7,0.2,1c0.1,0.4,0.1,0.8,0.2,1.2c0.1,0.3,0,0.4-0.3,0.4c-0.2,0.1-0.4,0.3-0.5,0.5
		c-0.1,0.1,0,0.3-0.1,0.5c0,0.2,0,0.3,0.2,0.2c0.2,0,0.4,0.1,0.4,0.3c0,0.2,0.2,0.3,0.4,0.4c0,0,0.1,0.1,0.1,0.2
		c0,0.2-0.1,0.4-0.2,0.6c0,0.2,0.1,0.3,0.3,0.3c0.3,0,0.6,0.1,0.8-0.3c0,0,0,0,0.1,0c0.4-0.2,0.5-0.5,0.7-0.8c0.1-0.2,0.1-0.4,0-0.6
		c0,0-0.2-0.1-0.3-0.1c-0.1,0-0.2,0-0.2-0.1c-0.1-0.1-0.1-0.1,0-0.2c0.3-0.2,0.5-0.4,0.8-0.6c0.1-0.1,0.1-0.2,0.1-0.2
		c0-0.1-0.1-0.1-0.1-0.2c0,0,0,0,0,0c-0.2,0.2-0.5,0.5-0.7,0.7c-0.2,0.2-0.4,0.1-0.5-0.1c0-0.1,0-0.3-0.1-0.3c-0.1-0.1-0.3,0-0.4,0
		c-0.1,0-0.1-0.2-0.2-0.2c0.1,0,0.1-0.1,0.2-0.1c0.1,0,0.3,0,0.4,0.1c0.3,0.1,0.5,0.2,0.6-0.3c0.2-0.5,0.4-1,0.7-1.4
		c0.1-0.3,0.3-0.6,0.4-0.9c0.2-0.3,0.4-0.4,0.8-0.2c0.2,0.1,0.2,0.3,0.2,0.5c0,0.5,0.1,1,0.1,1.4c0,0.3,0.2,0.4,0.4,0.4
		c0.1,0,0.2-0.1,0.2-0.2c0.3-0.3,0.6-0.5,0.7-0.9c0-0.6,0.1-1.2-0.2-1.9c-0.3-0.5-0.6-1-0.9-1.4c-0.4-0.4-0.8-0.7-1.3-0.9
		c-0.5-0.2-1-0.5-1.5-0.5c-0.8-0.1-1.7-0.1-2.5,0.2c-0.2,0.1-0.5,0.1-0.7,0.3c-0.5,0.4-1,0.8-1.4,1.4c-0.2,0.4-0.2,0.8-0.1,1.1
		c0.1,0.4,0.4,0.8,0.6,1.2c0.1,0.2,0.3,0.4,0.5,0.6c0.1,0.1,0.1,0.1,0.2,0.2c0-0.1,0.1-0.1,0.1-0.2C46.6,17.3,46.7,17,46.9,16.6
		 M53.6,39c-0.2-0.4-0.4-0.4-0.7-0.2c-0.1,0-0.1,0.1-0.2,0.1c-0.4,0-0.7,0.1-1.1,0.1c-0.1,0-0.3,0.1-0.3,0.2c0,0.3,0,0.6,0,0.9
		c0,0.5,0.1,0.9,0.2,1.4c0,0.3,0,0.5,0.1,0.8c0.1,0.9,0.1,1.9,0.2,2.8c0,0.1,0,0.2,0,0.2c0.1,0.5,0.3,1,0.2,1.5c0,0.5,0,1.1,0,1.6
		c0,0,0,0.1,0,0.1c0,0,0,0.1,0.1,0.1c0,0,0.1-0.1,0.1-0.1c0-0.2,0-0.4,0.1-0.5c0-0.4,0-0.7,0.1-1.1c0,0,0.1-0.1,0.1-0.1
		c0.3,0,0.7,0.4,0.7,0.7c0,0.1,0,0.2,0,0.3c0.1,0.3,0.2,0.6,0.3,0.8c0,0.1,0.2,0.2,0.3,0.3c0-0.1,0.1-0.2,0.1-0.3c0-0.2,0-0.4,0-0.6
		c0-0.5,0-1,0-1.4c0,0,0-0.1,0.1-0.1c0,0,0.1,0.1,0.1,0.1c0,0.1,0.1,0.3,0.1,0.4c0,0.4-0.1,0.8,0,1.2c0.2,0.4,0.1,0.7,0.2,1.1
		c0.1,0.8,0,1.7,0.2,2.5c0.1,0.4,0.1,0.9,0.1,1.3c0,0.1,0,0.2,0.1,0.3c0-0.1,0-0.2,0-0.3c-0.1-1.1-0.1-2.1-0.2-3.2
		c0-0.4-0.1-0.8,0-1.2c0-0.3-0.1-0.5-0.2-0.7c-0.1-0.6-0.1-1.2-0.1-1.8c0-0.2,0-0.5-0.2-0.7c0,0,0-0.1,0-0.1c0-0.1,0.1-0.3,0.1-0.4
		c0,0,0-0.1-0.1-0.1c0,0,0,0-0.1,0.1c0,0-0.1,0.1-0.1,0.1c0,0,0-0.1,0-0.1c0-0.1,0.1-0.2,0.1-0.3c0-0.8,0-1.6-0.1-2.5
		c-0.1-0.7-0.1-1.5-0.1-2.3C53.7,39.5,53.7,39.3,53.6,39 M42.9,36.6c0.8-0.4,1.1-0.9,1-1.7c0-0.1,0-0.2,0-0.3
		c0.1-0.4,0.3-0.9,0.5-1.3c0.2-0.6,0.4-1.1,0.6-1.7c0.1-0.4,0.2-0.8,0.3-1.2c0.1-0.5,0.4-0.9,0.4-1.4c0-0.3,0.3-0.6,0.3-1
		c0-0.2,0.2-0.4,0.2-0.7c0-0.4,0.2-0.8,0.3-1.1c0.2-0.8,0.6-1.6,0.9-2.5c0.1-0.4,0.2-0.8,0.3-1.2c0.1-0.3,0-0.5-0.3-0.6
		c0,0-0.1,0-0.1,0c0,0,0,0.1,0,0.1c0.1,0.2,0.1,0.5-0.1,0.7c-0.2,0.2-0.1,0.5-0.1,0.7c0,0.1,0,0.4-0.1,0.4c-0.2,0-0.2-0.1-0.2-0.3
		c0,0-0.1-0.1-0.1-0.1c0,0-0.1,0.1-0.1,0.1c0,0.1,0,0.2,0.1,0.3c0,0.1,0.1,0.3,0.1,0.4c0,0.2-0.2,0.4-0.2,0.5
		c-0.1,0.2,0,0.5-0.3,0.6c0,0-0.1,0.1-0.1,0.2c0,0.2-0.1,0.4-0.1,0.6c0,0.4-0.3,0.7-0.4,1.1c-0.1,0.3-0.2,0.5-0.3,0.8
		c0,0.1-0.1,0.3-0.2,0.4c-0.1,0.1-0.2,0.2-0.1,0.5c0,0.1,0,0.2,0,0.3C45,29.3,45,29.5,45,29.8c0,0,0,0.1-0.1,0.2c0,0-0.1,0-0.2,0
		c-0.1,0-0.1,0-0.2-0.1c0,0.1,0,0.1,0.1,0.2c0,0.1,0,0.2,0,0.2c0,0-0.1,0.1-0.2,0.1c-0.2,0-0.4-0.1-0.6-0.1c-0.1,0-0.1,0-0.2,0
		c0,0,0,0.1,0.1,0.1c0.4,0.3,0.4,0.4,0.3,0.9c-0.1,0.3-0.3,0.5-0.3,0.8c0,0.2-0.1,0.2-0.2,0.3c-0.1,0.1-0.2,0.1-0.3,0.2
		c-0.2,0-0.3,0-0.2-0.2c0.1-0.4-0.2-0.9,0.2-1.3c0.1-0.1,0.2-0.4,0.3-0.6c0.1-0.1,0.1-0.2,0-0.3c-0.2-0.3-0.3-0.6-0.1-1
		c0.1-0.2,0.2-0.4,0.3-0.5c0.1-0.3,0.3-0.6,0.2-1c0,0,0.1-0.1,0.1-0.1c0.1-0.2,0.1-0.4,0.2-0.6c0-0.1,0-0.3,0-0.4
		c0-0.2,0.1-0.3,0.2-0.5c0-0.6,0.4-1,0.5-1.6c0-0.1,0.1-0.2,0.1-0.2c0.1-0.3,0.3-0.5,0.3-0.8c0.1-0.2,0-0.5,0-0.7c0-0.1,0-0.1,0-0.2
		c0,0.1-0.1,0.1-0.1,0.2c0,0.2,0,0.3-0.1,0.5c-0.2,0.6-0.4,1.1-0.6,1.7c-0.2,0.5-0.3,0.9-0.5,1.4c-0.1,0.2-0.1,0.4-0.1,0.5
		c-0.1,0.3-0.2,0.6-0.3,0.9c0,0.1,0,0.3-0.1,0.3c-0.3,0.3-0.2,0.8-0.4,1.1c-0.2,0.2-0.2,0.6-0.3,0.9c-0.2,0.5-0.4,1-0.5,1.5
		c-0.1,0.4-0.2,0.8-0.4,1.2c-0.1,0.3-0.2,0.6-0.4,0.9c-0.2,0.4-0.4,0.9-0.6,1.3c-0.1,0.4-0.1,0.9,0.3,1.2
		C41.9,36.4,42.3,36.7,42.9,36.6 M42,38C42,38.1,42.1,38.1,42,38c0,0.4,0,0.7-0.2,1.1c-0.1,0.3-0.1,0.6-0.2,1
		c-0.1,0.2,0,0.5-0.2,0.6c0,0,0,0.1,0,0.2c0,0.4,0.1,0.8-0.1,1.2c0,0,0,0.1,0,0.1c0-0.1,0.1-0.1,0.1-0.2c0.1-0.3,0.1-0.7,0.2-1
		c0-0.1,0-0.2,0.2-0.2c0.1,0,0.1-0.1,0.1-0.2c0-0.1,0-0.3,0.1-0.4c0.1-0.3,0.3-0.6,0.4-1c0.1-0.2,0.1-0.4,0.2-0.7
		c0.1-0.2,0.1-0.5,0.2-0.7c0-0.2-0.1-0.2-0.2-0.2c-0.6,0.1-1.3,0-1.6-0.7c-0.1-0.1-0.1-0.1-0.2,0c-0.1,0.2-0.2,0.4-0.2,0.6
		c-0.2,0.7-0.4,1.3-0.7,2c-0.1,0.2-0.1,0.5-0.2,0.7c-0.1,0.3-0.2,0.6-0.2,1c0,0.1,0,0.1,0.1,0.2c0-0.1,0.1-0.1,0.1-0.2
		c0.1-0.3,0.2-0.6,0.3-0.8c0.1-0.3,0.1-0.5,0.1-0.8c0-0.1,0-0.1,0.1-0.2c0,0,0.1,0.1,0.1,0.1c0,0.2,0,0.3,0.1,0.5c0,0,0,0.1,0,0.1
		c0,0,0.1-0.1,0.1-0.1c0.1-0.4,0.2-0.8,0.3-1.2c0,0,0-0.1,0-0.1c0.2-0.1,0.2-0.3,0.2-0.4c0-0.2,0-0.3,0-0.5c0-0.2-0.1-0.5,0.3-0.2
		c0.1,0,0.2,0,0.2,0c0.1,0,0.2,0.1,0.3,0.2C41.9,38,41.9,38,42,38 M54.5,37.2c-0.1-0.1-0.2-0.1-0.2,0.1c0,0.2,0,0.4-0.1,0.6
		c0,0.1,0,0.2,0,0.3c0-0.1,0.1-0.1,0.1-0.2c0,0,0.1-0.1,0.1-0.1c0.3,0.1,0.6,0.1,0.9,0.2c0,0,0.1,0,0.2,0c0.3-0.2,0.5,0,0.8,0
		c0.2,0,0.5,0.1,0.7,0.1c0.4,0,0.8,0,1.1,0.2c0.1,0.1,0.3,0,0.4,0c0.1,0,0.3,0,0.4,0c0.3,0.2,0.4,0,0.5-0.2c0.1-0.2,0-0.2-0.1-0.2
		c-0.4-0.1-0.9-0.2-1.3-0.2c-0.5,0-1,0-1.5-0.2C55.9,37.4,55.2,37.4,54.5,37.2 M72.3,40c0,0,0-0.1,0.1-0.1c0.3-0.3,0.3-0.8-0.1-1
		c-0.3-0.2-0.6-0.3-1-0.2c-0.1,0-0.2,0.1-0.3,0.2c0.1,0.1,0.2,0.2,0.2,0.3c0.1,0,0.2,0,0.2,0.1c0.1,0,0.2,0.1,0.2,0.2
		c0,0.1,0,0.2-0.1,0.2c-0.3,0.1-0.2,0.3-0.1,0.5c0,0.2,0.2,0,0.3,0c0.1,0,0.2,0,0.2,0C72,40.1,72.1,40.1,72.3,40 M51.5,6
		c0-0.4,0-0.9,0.1-1.3c0-0.1-0.1-0.1-0.1-0.2c-0.1,0-0.1,0.1-0.2,0.1c-0.1,0.4-0.1,0.8-0.2,1.1c-0.1,0.5-0.1,1-0.2,1.5
		c0,0.3,0,0.6-0.1,0.9c0,0.4,0,0.7-0.1,1.1c0,0.1,0,0.1,0.1,0.2c0-0.1,0.1-0.1,0.1-0.2c0.1-0.5,0-1,0.2-1.5c0.1-0.3,0.1-0.7,0.1-1
		C51.3,6.6,51.4,6.3,51.5,6 M54.8,88.5c0-0.3-0.4-0.5-0.2-0.9c-0.1,0-0.2,0-0.2,0c0,0.2-0.1,0.3-0.1,0.5c0,0.3,0.3,0.6,0.2,0.9
		c0,0.1,0,0.1-0.1,0.2c0,0-0.1,0-0.2-0.1c0,0-0.1-0.1-0.1-0.2c0,0.1,0,0.1,0,0.2c0,0.4,0.1,0.8-0.4,1c0,0,0,0,0,0.1
		c0,0.4,0,0.7,0.2,1.1c0,0,0.1,0.1,0.1,0.1c0,0,0.1,0,0.1-0.1c0-0.2,0-0.4,0.1-0.5c0.1-0.4,0.5-0.8,0.4-1.3c0,0,0,0,0,0
		C54.8,89.1,54.7,88.8,54.8,88.5 M53.8,50.7c0-0.5,0-1,0.1-1.5c0-0.2-0.1-0.2-0.2-0.1c-0.3,0.1-0.2,0.3-0.1,0.5
		c0.1,0.2,0.1,0.4,0,0.6C53.4,50.5,53.5,50.7,53.8,50.7 M59.7,66.4c0.1-0.3,0.2-0.6,0.3-0.9c0-0.1,0.1-0.2,0.1-0.2
		c0-0.1,0.1-0.2,0.1-0.2C60.1,65,60,65,59.9,64.9c0,0.1-0.1,0.1-0.1,0.2c0,0.2-0.1,0.4-0.1,0.5C59.6,65.9,59.7,66.2,59.7,66.4
		 M52.4,50.6C52.4,50.6,52.4,50.6,52.4,50.6c0-0.6,0.1-1.1,0.1-1.6c0,0-0.1-0.1-0.1-0.1c0,0-0.1,0-0.2,0.1c0,0.1,0,0.1,0,0.2
		c0,0.4,0,0.7,0.1,1.1C52.3,50.4,52.3,50.5,52.4,50.6 M51.2,23.8c-0.1,0.1-0.1,0.2-0.2,0.3c0,0.1,0,0.3,0,0.5c0,0.1,0.1,0.1,0.1,0.2
		c0.1-0.1,0.2-0.1,0.2-0.2C51.4,24.2,51.4,24,51.2,23.8C51.3,23.7,51.3,23.7,51.2,23.8 M51.8,17.5c0,0,0.1,0.1,0.1,0.1
		c0,0.3,0,0.6,0,0.9c0,0.1,0,0.1,0.1,0.2c0-0.1,0.1-0.1,0.1-0.2c0-0.3,0-0.6,0-0.9c0-0.1,0-0.1,0-0.2c0,0,0-0.1-0.1-0.1
		C51.8,17.4,51.8,17.4,51.8,17.5 M60.1,78.4c-0.3,0-0.4,0.1-0.4,0.5c0,0.1,0.1,0.2,0.1,0.3c0-0.1,0.1-0.2,0.1-0.3
		c0.1-0.1,0-0.3,0.2-0.3C60.2,78.5,60.2,78.5,60.1,78.4 M54.2,52c0-0.1-0.1-0.1-0.1-0.2c0,0.1,0,0.1-0.1,0.2c0,0.3,0,0.6,0,0.9
		c0,0,0,0.1,0,0.1c0,0,0.1-0.1,0.1-0.1C54.2,52.5,54.2,52.3,54.2,52 M47.6,16.4c-0.1,0-0.1-0.1-0.2-0.1c0,0.3-0.3,0.6-0.2,0.9
		c0,0,0,0.1,0,0.1c0,0,0.1,0,0.1-0.1C47.4,17,47.5,16.7,47.6,16.4 M45.9,22.1c0-0.1-0.1-0.3-0.1-0.4c0,0,0-0.1,0-0.1
		c0,0-0.1,0-0.1,0.1c0,0.1-0.1,0.1-0.1,0.2c0.1,0.2,0.1,0.4,0.2,0.6c0,0,0.1,0.1,0.1,0.1c0-0.1,0.1-0.1,0.1-0.2
		C46,22.3,45.9,22.2,45.9,22.1 M58.1,71.6C58,71.8,58,72,57.9,72.1c-0.1,0.1,0,0.2,0.1,0.2c0.4-0.1,0-0.4,0.2-0.5
		C58.2,71.8,58.2,71.7,58.1,71.6C58.1,71.6,58.1,71.6,58.1,71.6 M44.6,16.4c0,0.2,0.1,0.3,0.1,0.5c0,0.1,0.1,0.3,0.2,0.4
		c0,0.1,0.1,0.1,0.1,0.2c0-0.1,0.1-0.2,0-0.2c-0.1-0.2-0.2-0.5-0.3-0.7C44.7,16.5,44.7,16.5,44.6,16.4 M28.2,83
		c0.1,0,0.1,0.1,0.2,0.1c0-0.2,0-0.5,0-0.7c0,0,0-0.1-0.1-0.1c0,0-0.1,0.1-0.1,0.1C28.3,82.6,28.3,82.8,28.2,83 M53.1,49.5
		c0-0.1,0-0.3,0-0.4c0,0,0-0.1-0.1-0.1c0,0-0.1,0.1-0.1,0.1c0,0.3,0,0.5,0,0.8c0,0.1,0.1,0.1,0.1,0.2c0-0.1,0-0.1,0-0.2
		C53.1,49.8,53.1,49.7,53.1,49.5 M58.4,71.1c0-0.2,0-0.4,0-0.5c0,0-0.1-0.1-0.1-0.1c0,0.1-0.1,0.3-0.1,0.4
		C58.2,71,58.2,71.1,58.4,71.1 M47.2,17.7c-0.1,0-0.1,0-0.2-0.1c0,0.2,0,0.4,0,0.6c0,0,0.1,0.1,0.1,0.1c0,0,0.1-0.1,0.1-0.1
		C47.2,18,47.2,17.8,47.2,17.7 M60.7,78.6c0,0,0-0.1,0-0.1c0-0.1,0-0.3,0-0.4c-0.1,0.1-0.1,0.3-0.2,0.4c0,0,0,0.1,0,0.1
		C60.6,78.9,60.7,78.8,60.7,78.6 M55.4,81.9c0-0.1,0-0.2,0-0.3c0,0-0.1-0.1-0.1-0.1c-0.1,0-0.1,0.1-0.2,0.1c0,0,0,0.1,0.1,0.1
		C55.2,81.8,55.2,81.8,55.4,81.9 M54.5,84.5c0,0,0.1,0,0.1,0.1c0-0.2,0.1-0.3,0.1-0.5c0,0-0.1,0-0.1-0.1c0,0.1-0.1,0.1-0.1,0.2
		C54.5,84.2,54.5,84.3,54.5,84.5 M52.5,51.3c0-0.1,0-0.3,0.1-0.4c0,0-0.1-0.1-0.1-0.1c0,0-0.1,0.1-0.1,0.1
		C52.5,51,52.5,51.1,52.5,51.3 M50.9,22.8c0,0.2,0.2,0.3,0.4,0.3c0,0,0,0,0,0C51.3,23,51.1,22.9,50.9,22.8 M54.5,53.9
		c0,0-0.1,0-0.1-0.1c0,0.1,0,0.3,0,0.4c0,0,0,0,0.1,0C54.4,54.2,54.5,54,54.5,53.9 M45.8,21c0,0,0,0.1,0,0.1c0,0.1,0.1,0.1,0.1,0.2
		c0-0.1,0-0.1,0.1-0.2C45.9,21.1,46,20.8,45.8,21 M38.4,43.9c0,0.1,0,0.1,0.1,0.2c0,0,0.1,0,0.1-0.1c0-0.1,0-0.2,0-0.3
		C38.5,43.8,38.5,43.8,38.4,43.9 M60.6,79.3c-0.1,0-0.1-0.1-0.2-0.1c0,0.1,0,0.1,0,0.2c0,0,0.1,0.1,0.1,0.1
		C60.5,79.4,60.6,79.4,60.6,79.3 M39.2,41.9c0-0.1,0.1-0.2,0.1-0.3c0,0-0.1-0.1-0.1-0.1C39.2,41.6,39.2,41.7,39.2,41.9 M28.5,81.9
		c0,0,0,0.1,0,0.1c0,0.1,0,0.1,0.1,0.1c0-0.1,0.1-0.2,0.1-0.3C28.6,81.9,28.5,81.9,28.5,81.9 M45.5,24.3
		C45.5,24.4,45.5,24.4,45.5,24.3c0,0.1,0.1,0.2,0.1,0.2c0,0,0.1-0.1,0.1-0.1c0-0.1,0-0.2,0-0.3C45.6,24.2,45.6,24.3,45.5,24.3
		 M53.5,65.5c0-0.1,0-0.3,0-0.4c0,0-0.1,0-0.1,0C53.4,65.2,53.5,65.3,53.5,65.5 M52.7,55c0,0,0.1,0.1,0.1,0.1c0,0,0-0.1,0-0.1
		c0-0.1,0-0.2-0.1-0.4C52.7,54.7,52.7,54.8,52.7,55 M41.6,39c0-0.1,0-0.2,0-0.2c0,0-0.1,0-0.1,0C41.6,38.9,41.6,38.9,41.6,39
		 M38.9,42.4c0,0.1,0,0.1,0,0.2c0,0,0,0.1,0,0.1c0,0,0.1-0.1,0.1-0.1C39,42.5,39,42.4,38.9,42.4 M54.8,54.4
		C54.8,54.4,54.8,54.5,54.8,54.4c0,0.2,0,0.3,0.1,0.4c0-0.1,0-0.2,0-0.3C54.9,54.5,54.9,54.4,54.8,54.4 M44.1,28.5
		c0,0,0,0.1-0.1,0.1c0.1,0,0.1,0,0.2,0c0,0,0-0.1,0-0.1C44.3,28.5,44.2,28.5,44.1,28.5 M49.8,6c0,0.1,0,0.1,0,0.2
		C49.8,6.1,49.8,6.1,49.8,6C49.8,6,49.8,5.9,49.8,6c0.1-0.2,0-0.3,0-0.5C49.8,5.6,49.8,5.8,49.8,6 M54.5,80c0-0.1,0-0.1-0.1-0.2
		c0,0-0.1,0.1-0.1,0.1C54.4,80,54.5,80,54.5,80 M56,72c0-0.1,0-0.2,0-0.4C56,71.7,56,71.9,56,72c-0.1,0,0,0.1,0,0.1
		C56,72.1,56,72.1,56,72 M41.2,40.3c0,0,0.1-0.1,0.1-0.1c0,0,0-0.1-0.1-0.1C41.2,40.1,41.2,40.2,41.2,40.3 M51.5,22.3
		c0,0.1,0.1,0.1,0.1,0.2c0,0,0-0.1,0-0.1C51.6,22.4,51.5,22.3,51.5,22.3 M53,50.4C53,50.4,53,50.4,53,50.4
		C53,50.4,53.1,50.4,53,50.4c0-0.1,0-0.1,0-0.2c0,0,0,0,0,0C53,50.3,53,50.3,53,50.4 M57.9,73.1C57.9,73.1,57.9,73.1,57.9,73.1
		C57.8,73.1,57.8,73.1,57.9,73.1c-0.1,0.1,0,0.2,0,0.3C57.9,73.3,57.9,73.3,57.9,73.1 M60.1,79.8c0.1,0,0.1,0,0.2-0.1
		c0,0,0-0.1,0-0.1C60.2,79.7,60.1,79.7,60.1,79.8 M53.5,88.3c0,0-0.1,0.1-0.1,0.1c0,0,0,0,0.1,0.1C53.5,88.5,53.5,88.5,53.5,88.3
		 M38.3,44.4c0,0-0.1,0-0.1,0c0,0,0,0.1,0,0.1C38.3,44.5,38.3,44.5,38.3,44.4 M58.5,78.5C58.5,78.5,58.5,78.5,58.5,78.5
		c0.1,0,0.1,0,0.1,0C58.5,78.4,58.5,78.4,58.5,78.5 M55,82.7c0,0,0,0.1,0,0.1c0,0,0.1,0,0.1,0C55.1,82.7,55,82.7,55,82.7 M51.2,22
		c0,0,0.1,0.1,0.1,0.1c0,0,0,0,0,0C51.3,22,51.2,22,51.2,22z"/>
	<path d="M59.2,72.7c0.1-0.3,0.1-0.5,0.1-0.8c0-0.1,0.1-0.1,0.1-0.2c0,0.1,0.1,0.1,0.1,0.2c0,0.2,0.1,0.5,0,0.6
		c-0.3,0.3-0.2,0.6-0.2,0.9c0,0.1,0,0.1,0,0.2c0,0-0.1,0.1-0.1,0.1c0,0-0.1-0.1-0.1-0.1C59.2,73.3,59,73,59.2,72.7z"/>
	<path d="M59.7,71.4c0-0.1-0.1-0.2,0-0.3c0-0.2,0.1-0.4,0.2-0.6c0-0.1,0.1-0.1,0.1-0.2c0,0.1,0.1,0.1,0.1,0.2c0,0.2,0,0.4-0.2,0.5
		C59.8,71.1,59.7,71.3,59.7,71.4z"/>
	<path d="M52.5,32.2c0-0.2,0-0.3,0-0.5c0,0,0,0,0-0.1c0,0,0,0,0,0.1c0.1,0.2,0.1,0.3,0.2,0.5c0,0.1,0.1,0.2,0.1,0.3
		c0,0.1,0,0.1-0.1,0.2c0-0.1-0.1-0.1-0.1-0.2C52.6,32.4,52.6,32.3,52.5,32.2z"/>
	<path d="M60,69.9c0.1-0.1,0.1-0.2,0.2-0.3c0,0.1,0,0.3,0.1,0.4c0,0,0,0,0,0c0,0.1-0.1,0.3-0.1,0.4C60,70.2,60,70.1,60,69.9
		C60,69.9,60,69.9,60,69.9z"/>
	<path d="M52.1,32.7c0.3,0.1,0.1,0.3,0.1,0.5c0,0-0.1,0-0.1,0c0,0-0.1-0.1-0.1-0.1C52,32.9,52,32.8,52.1,32.7z"/>
	<path d="M51.4,26.9c0,0.3,0,0.6,0,0.8c0,0,0,0,0,0.1c0,0,0,0,0-0.1C51.4,27.4,51.4,27.1,51.4,26.9z"/>
	<path d="M61.3,64.5c0,0.1,0.1,0.1,0.1,0.2c0,0.1-0.1,0.2-0.1,0.3c0-0.1,0-0.2-0.1-0.2c0-0.1-0.1-0.1-0.1-0.2
		C61.2,64.3,61.2,64.4,61.3,64.5z"/>
	<path d="M51.2,30C51.2,30,51.2,30,51.2,30c0,0.2,0,0.3,0,0.5c0,0-0.1,0-0.1,0C51.1,30.2,51.1,30.1,51.2,30
		C51.1,29.9,51.2,29.9,51.2,30C51.2,29.9,51.2,29.9,51.2,30z"/>
	<path d="M61.3,65.7c-0.3,0.1-0.1-0.1-0.1-0.2c0-0.1,0.1-0.1,0.1-0.2c0,0,0.1,0,0.1,0.1C61.3,65.5,61.3,65.6,61.3,65.7z"/>
	<path d="M52.1,26.4c0,0.1-0.1,0.2-0.1,0.2c0-0.1-0.1-0.1-0.1-0.2c0-0.1,0-0.1,0-0.2C52,26.3,52.1,26.3,52.1,26.4z"/>
	<path d="M51.7,30.4c0,0.1,0,0.2-0.1,0.2c0-0.1,0-0.1,0-0.2c0,0,0,0,0-0.1c0-0.1,0-0.1,0.1-0.2C51.7,30.3,51.7,30.3,51.7,30.4z"/>
	<path d="M60.4,40c-0.1,0-0.2,0-0.3,0c0,0-0.1,0-0.1,0c0,0,0.1-0.1,0.1-0.1C60.2,39.9,60.3,39.9,60.4,40z"/>
	<path d="M60.7,67.7c0,0,0-0.1,0-0.1c0-0.1,0.1-0.2,0.1-0.2c0,0,0.1,0,0.1,0c0,0.1,0,0.2-0.1,0.3C60.7,67.7,60.7,67.7,60.7,67.7z"/>
	<path d="M60.3,69c0,0.1,0,0.2,0,0.3c0,0,0,0-0.1,0C60.3,69.2,60.3,69.1,60.3,69z"/>
	<path d="M61,66.2C61.1,66.2,61.1,66.2,61,66.2c0.1,0.1,0,0.2,0,0.3C61,66.4,61,66.3,61,66.2C61,66.3,61,66.2,61,66.2z"/>
	<path d="M60.4,36.9C60.4,36.9,60.4,37,60.4,36.9c0,0.1,0,0.2,0,0.3c0,0-0.1,0-0.1,0C60.4,37.1,60.4,37,60.4,36.9z"/>
	<path d="M55.3,85.7c0-0.1,0-0.1-0.1-0.2c0,0,0,0,0.1,0c0,0.1,0.1,0.2,0.1,0.3C55.3,85.8,55.3,85.8,55.3,85.7z"/>
	<path d="M52.3,30.4c0,0,0.1,0.1,0.1,0.1c0,0-0.1,0-0.1,0.1C52.3,30.5,52.3,30.5,52.3,30.4z"/>
	<path d="M53,33.7c0,0.1,0,0.1,0,0.2c0,0-0.1,0-0.1,0C53,33.8,53,33.7,53,33.7z"/>
	<path d="M52.3,26.8c0,0,0.1,0.1,0.1,0.2c0,0-0.1,0-0.1,0C52.3,26.9,52.3,26.9,52.3,26.8z"/>
	<path d="M51.9,27.9c0,0-0.1-0.1-0.1-0.2c0,0,0,0,0.1,0C51.9,27.8,51.9,27.9,51.9,27.9z"/>
	<path d="M52.4,45.9c0.2-0.1,0.4,0,0.6,0c0,0,0.1,0,0.1,0c0,0,0.1,0,0.1,0c0,0.1,0,0.1,0,0.2c-0.1,0-0.2,0-0.3,0
		c-0.2-0.4-0.3,0-0.4,0c-0.1,0-0.2,0.1-0.2,0.1C52.4,46.2,52.2,46.1,52.4,45.9z"/>
	<path d="M53.3,41.2c0.1,0.1,0.1,0.1,0.2,0.2c-0.1,0-0.1,0.1-0.2,0.1c-0.2,0-0.3,0.1-0.4,0.3c0,0-0.1,0-0.2,0
		c-0.2-0.2-0.3-0.3,0.1-0.3C53,41.4,53.1,41.3,53.3,41.2z"/>
	<path d="M53,39.3c0.1,0,0.2,0,0.3,0c0,0,0,0,0,0.1C53.2,39.3,53.1,39.3,53,39.3z"/>
	<path d="M43.9,33.1c0,0.1-0.1,0.2-0.2,0.1c-0.1-0.1-0.2,0-0.3,0c0,0.1,0.1,0.2,0.1,0.3c0,0.1,0.1,0.1,0.1,0.2c0,0.1,0,0.2,0.1,0.3
		c-0.1,0-0.2,0-0.3-0.1c-0.1,0-0.3-0.1-0.4-0.2c-0.3-0.1-0.4-0.4-0.3-0.7c0,0,0.1-0.1,0.1-0.1c0,0,0.1,0.1,0.1,0.1
		c0,0.1,0,0.1,0,0.2c0,0.1,0.1,0.1,0.1,0.1c0-0.1,0.1-0.2,0.1-0.2c0-0.1-0.1-0.2-0.1-0.3c-0.1-0.2,0-0.3,0.2-0.2
		c0.3,0.2,0.6,0.1,0.8-0.3c0,0,0.1,0,0.1,0c0,0,0,0.1,0,0.1C43.9,32.6,43.9,32.8,43.9,33.1z"/>
	<path d="M43.4,30.1c0,0.1,0,0.2,0,0.3c0,0-0.1,0-0.1-0.1c0-0.1,0-0.2,0-0.3c0,0,0.1-0.1,0.1-0.1C43.4,30,43.4,30.1,43.4,30.1z"/>
	<path d="M42.8,32c-0.1,0.1-0.1,0.2-0.2,0.2c0-0.1-0.1-0.2,0-0.2C42.6,32,42.7,31.8,42.8,32z"/>
	<path d="M40.4,39.1c0,0.1,0,0.1-0.1,0.1c0,0,0,0,0-0.1C40.3,39.2,40.4,39.1,40.4,39.1z"/>
	<path d="M72.2,39.4c0.1,0.2-0.1,0.1-0.2,0.2c-0.1,0-0.2,0-0.2-0.1c0,0,0.1-0.1,0.1-0.1C72,39.4,72.1,39.4,72.2,39.4z"/>
</g>
</svg>
