<?xml version="1.0" encoding="utf-8"?>
<!-- Generator: Adobe Illustrator 21.0.0, SVG Export Plug-In . SVG Version: 6.00 Build 0)  -->
<svg version="1.1" id="Layer_1" xmlns="http://www.w3.org/2000/svg" xmlns:xlink="http://www.w3.org/1999/xlink" x="0px" y="0px"
	 viewBox="0 0 100 100" style="enable-background:new 0 0 100 100;" xml:space="preserve">
<g id="Shape_33">
	<path d="M27.6,77.3c-0.1,0.1-0.3,0.2-0.4,0.2c-0.2,0.1-0.4,0-0.6,0.1c0,0-0.1,0-0.1,0c0,0.4-0.4,0.2-0.6,0.3
		c-0.1,0.1-0.3,0-0.3,0.1c-0.2,0.3-0.5,0.2-0.8,0.3c-0.1,0-0.2,0.1-0.3,0.1c-0.1,0.1-0.2,0.1-0.3,0.2c-0.3,0-0.5,0-0.7,0.3
		c-0.1,0.1-0.3,0.1-0.5,0.1c-0.2,0-0.3,0-0.5,0.2c-0.1,0.1-0.4,0.1-0.5,0.2c-0.1,0-0.2,0-0.2,0c-0.3,0.3-0.6,0.3-1,0.3
		c0,0-0.1,0-0.1,0c-0.1,0.3-0.5,0.2-0.7,0.3c-0.2,0-0.3,0-0.4,0.2c0,0.1-0.1,0.1-0.2,0.1c-0.4,0.1-0.8,0.2-1.2,0.3
		c-0.5,0.1-0.9,0.4-1.3,0.5c-0.3,0.1-0.6,0.2-0.9,0.3c-0.1,0-0.2,0.1-0.2,0.2c-0.1,0.1-0.2,0.1-0.2,0.1c-0.3,0-0.6,0.1-0.8,0.3
		c-0.2,0.1-0.5,0-0.7,0.2c-0.4,0.3-0.9,0.1-1.3,0.5c-0.1,0.1-0.2,0.1-0.3,0.1c-0.2,0.1-0.5,0-0.7,0.3c-0.1,0.1-0.4,0.1-0.6,0.1
		c-0.1,0-0.3,0.1-0.4,0.2c-0.1,0-0.2,0.1-0.3,0.1c-0.2,0.1-0.5,0.1-0.7,0.2C9.4,84,9,84,8.7,84c-0.1,0-0.3-0.2-0.3-0.3
		c0-0.4,0-0.8,0-1.2c0-0.1,0.1-0.1,0.1-0.2c0.3-0.2,0.5-0.3,0.8-0.5c0.3-0.3,0.6-0.6,1-0.8c0.2-0.2,0.5-0.4,0.7-0.5
		c0.3-0.2,0.5-0.4,0.7-0.6c0.5-0.4,1-0.7,1.5-1.1c0.4-0.3,0.8-0.5,1.1-0.8c0.3-0.3,0.7-0.5,1-0.8c0.3-0.3,0.7-0.6,1-0.8
		c0.4-0.3,0.8-0.5,1.1-0.8c0.2-0.2,0.4-0.4,0.6-0.5c0.3-0.2,0.6-0.4,0.9-0.6c0.2-0.1,0.4-0.3,0.6-0.5c0,0,0.1-0.1,0.1-0.1
		c0.6-0.4,1.1-0.8,1.7-1.2c0.5-0.4,1-0.8,1.5-1.2c0.3-0.2,0.7-0.5,1-0.7c0.1,0,0.2-0.1,0.2-0.1c0.5,0,1-0.1,1.5-0.3
		c0.1,0,0.2,0,0.3,0c0.3,0,0.5-0.1,0.7-0.2c0.2-0.1,0.4-0.1,0.6-0.1c0.2,0,0.4,0,0.5-0.2c0,0,0.1-0.1,0.2-0.1c0.3,0,0.6,0,1-0.1
		c0.1,0,0.3,0,0.2-0.2c0,0,0-0.1,0.1-0.1c0.2,0,0.3-0.1,0.5-0.1c0.6,0,1.1-0.4,1.6-0.3c0,0,0.1,0,0.1,0c0.3-0.3,0.7-0.2,1.1-0.3
		c0.1,0,0.1,0,0.1-0.1c0-0.3,0.3-0.2,0.4-0.2c0.2,0,0.4,0,0.7-0.1c0,0,0.1,0,0.1-0.1c0.2-0.3,0.5-0.2,0.7-0.3
		c0.3-0.2,0.6-0.4,0.9-0.7c0.2-0.1,0.3-0.3,0.4-0.4c0.2-0.3,0.4-0.5,0.6-0.8c0,0,0-0.1,0-0.1c0.4-0.4,0.8-0.9,1.3-1.3
		c0,0,0,0,0.1-0.1c0.3-0.6,0.8-1,1.2-1.6c0.3-0.4,0.7-0.9,1-1.3c0.3-0.3,0.6-0.7,0.9-1c0.2-0.2,0.3-0.4,0.4-0.6c0.3-0.4,0.6-0.7,1-1
		c0.3-0.3,0.6-0.6,0.8-1c0.2-0.3,0.4-0.5,0.6-0.8c0.3-0.3,0.6-0.7,0.9-1c0.2-0.2,0.5-0.4,0.7-0.6c0.3-0.3,0.6-0.6,0.9-0.9
		c0.4-0.3,0.8-0.6,1.2-0.8c0.3-0.2,0.7-0.3,1-0.7c0.2-0.2,0.5-0.2,0.7-0.4c0.4-0.2,0.7-0.4,1-0.7c0.3-0.2,0.6-0.3,0.8-0.4
		c0.1,0,0.2-0.1,0.2-0.2c0.1-0.1,0.2-0.1,0.3-0.2c0.3-0.2,0.7-0.4,1-0.6c0.1-0.1,0.2-0.1,0.3-0.1c0.4-0.1,0.6-0.5,0.6-0.9
		c0-0.1,0-0.2,0-0.3c0-0.1,0.1-0.2,0.1-0.3c0-0.1,0.1-0.1,0.1-0.2c0.2-0.5,0.3-0.5,0.7-0.5c0.1,0,0.3,0,0.3-0.1c0-0.1,0-0.3-0.1-0.4
		c-0.1-0.1-0.1-0.1,0-0.2c0.3-0.2,0.6-0.5,0.9-0.7c0.3-0.2,0.6-0.3,0.9-0.5c0.2-0.1,0.4-0.5,0.4-0.7c0-0.2,0-0.4,0.2-0.6
		c0.6-0.4,1.1-0.8,1.6-1.2c0.2-0.2,0.4-0.4,0.7-0.6c0.2-0.1,0.4-0.3,0.6-0.4c0.3-0.2,0.6-0.5,0.9-0.7c0.4-0.2,0.8-0.5,1.1-0.8
		c0.3-0.2,0.7-0.5,1-0.7c0.5-0.3,0.9-0.7,1.4-1c0.4-0.3,0.9-0.6,1.4-0.9c0.2-0.1,0.3-0.3,0.5-0.4c0.2-0.2,0.5-0.4,0.7-0.5
		c0.2-0.1,0.3-0.2,0.4-0.4c0.1-0.2,0.4-0.2,0.5-0.3c0.4-0.3,0.9-0.6,1.3-0.9c0.2-0.2,0.4-0.4,0.7-0.5c0.3-0.2,0.5-0.3,0.8-0.5
		c0.6-0.4,1.2-0.9,1.7-1.3c0.4-0.3,0.8-0.6,1.2-0.9c0.4-0.3,0.8-0.6,1.2-0.9c0,0,0.1-0.1,0.1-0.1c0.1-0.1,0.3-0.2,0.4-0.3
		c0,0,0.1-0.1,0.1-0.1c0.3-0.2,0.6-0.4,1-0.6c0.3-0.2,0.6-0.3,0.9-0.5c0.3-0.2,0.6-0.4,0.9-0.5c0.4-0.1,0.7-0.5,1.1-0.6
		c0.3-0.1,0.5-0.3,0.8-0.4c0.1-0.1,0.2-0.1,0.4-0.2c0.3-0.1,0.5-0.3,0.8-0.3c0.2,0,0.3-0.1,0.5-0.3c0.2-0.1,0.4-0.1,0.6-0.1
		c0.1,0,0.2-0.1,0.3-0.2c0.2-0.1,0.4-0.2,0.6-0.2c0.3,0,0.5-0.1,0.7-0.3c0.1-0.1,0.3-0.1,0.5-0.1c0.3,0,0.7,0,1-0.2
		c0.2-0.1,0.6-0.1,0.8-0.1c0.3,0,0.6,0,0.9,0c0.2,0,0.4-0.1,0.6-0.2c0.2-0.1,0.4-0.1,0.6-0.1c1.1,0,2.3,0,3.4,0
		c0.2,0,0.3,0.1,0.5,0.2c0.1,0,0.2,0.1,0.3,0.1c0.5,0,0.8,0.4,0.8,0.8c0,0.5,0,1-0.1,1.6c0,0.1-0.1,0.3-0.2,0.4
		c-0.1,0.3-0.1,0.6-0.1,0.9c0,0.1-0.1,0.2-0.1,0.3c-0.1,0.2-0.1,0.3-0.2,0.5c0,0.2,0,0.4-0.3,0.6c-0.1,0.1-0.1,0.3-0.2,0.5
		c-0.1,0.1-0.1,0.3-0.2,0.4c-0.1,0.2-0.3,0.5-0.4,0.7c-0.2,0.3-0.4,0.6-0.7,0.9c-0.1,0.2-0.3,0.3-0.4,0.5c-0.3,0.3-0.5,0.7-0.8,1
		c0,0,0,0.1-0.1,0.1c-0.5,0.2-0.9,0.7-1.3,1c-0.3,0.2-0.6,0.4-0.8,0.5c-0.3,0.2-0.5,0.4-0.8,0.6c-0.3,0.2-0.6,0.3-0.9,0.5
		c-0.1,0.1-0.2,0.2-0.4,0.2c-0.1,0.1-0.2,0.1-0.4,0.2c-0.5,0.2-1,0.4-1.5,0.7c-0.3,0.2-0.6,0.2-0.8,0.4c-0.3,0.3-0.7,0.3-1,0.5
		c-0.1,0.1-0.2,0.1-0.2,0.1c-0.2,0.1-0.3,0.2-0.5,0.3c0,0,0,0-0.1,0c-0.3,0.1-0.5,0.3-0.8,0.4c-0.3,0.1-0.6,0-0.7,0.4
		c0,0-0.1,0-0.2,0c-0.4,0.2-0.8,0.4-1.2,0.6c-0.1,0.1-0.3,0.1-0.4,0.1c-0.1,0-0.2,0-0.2,0.1c-0.1,0.2-0.3,0.2-0.6,0.3
		c-0.1,0-0.1,0-0.2,0.1c-0.4,0.3-0.9,0.5-1.4,0.7c-0.3,0.1-0.7,0.2-0.9,0.4c-0.4,0.4-1,0.4-1.5,0.7c-0.3,0.2-0.7,0.4-1,0.6
		c-0.1,0.1-0.3,0.1-0.4,0.1c-0.2,0.1-0.4,0.3-0.6,0.4c-0.4,0.2-0.8,0.3-1.1,0.4c-0.3,0.1-0.6,0.2-0.8,0.4c-0.2,0.2-0.4,0.2-0.7,0.3
		c0,0-0.1,0.1-0.1,0.1c-0.2,0.1-0.3,0.2-0.5,0.2c-0.2,0-0.4,0-0.5,0.2c-0.1,0.1-0.2,0.1-0.4,0.1c-0.4,0.2-0.8,0.4-1.1,0.6
		c-0.1,0-0.2,0-0.3,0.1c-0.2,0.1-0.3,0.1-0.5,0.2c-0.2,0.1-0.3,0.2-0.5,0.2c-0.2,0.1-0.4,0.2-0.6,0.3c-0.3,0.1-0.7,0.2-1,0.4
		c-0.3,0.2-0.5,0.3-0.9,0.3c-0.1,0-0.2,0.1-0.3,0.2c-0.2,0.1-0.4,0.1-0.5,0.2c-0.1,0.1-0.2,0.1-0.3,0.2C61.1,50.9,61,51,60.9,51
		c-0.2,0-0.3,0-0.5,0c-0.5,0-0.6-0.2-0.5-0.6c0.1-0.4,0.2-0.5,0.6-0.5c0.2,0,0.5-0.4,0.5-0.6c0-0.4,0-0.7,0-1.1c0-0.1,0-0.2-0.1-0.3
		c-0.2-0.3-0.4-0.6-0.6-0.9c-0.1-0.2-0.3-0.4-0.5-0.5c-0.4-0.2-0.6-0.5-1.1-0.6c-0.2,0-0.5-0.2-0.7-0.2c-0.3-0.1-0.6,0.1-0.7,0.4
		c0,0.1,0,0.2,0,0.3c0.1,0,0.2-0.1,0.3-0.1c0.2-0.2,0.5-0.3,0.7-0.2c0,0,0.1,0.1,0.1,0.1c0.1,0.1,0.1,0.1,0.2,0.2
		c0,0,0.1,0.1,0.1,0.1c0,0.1-0.1,0.1-0.1,0.1c-0.4-0.2-0.2,0.2-0.3,0.3c-0.1,0.4-0.3,0.6-0.7,0.6c-0.1,0-0.2,0.1-0.3,0.2
		c-0.2,0.3-0.6,0.4-1,0.5c-0.1,0-0.2,0-0.1-0.2c0,0-0.1-0.1-0.1-0.1c-0.3,0-0.5,0-0.8,0c-0.1,0-0.1,0.1-0.2,0.1
		c0.1,0,0.1,0.1,0.2,0.1c0.2,0,0.3,0,0.5,0c0.2,0,0.3,0.1,0.3,0.3c0,0.2,0.1,0.3,0.2,0.5c0,0.1,0.1,0.2,0.1,0.3
		c0.1,0.2,0.2,0.4,0.3,0.6C57,49.9,57,50,57,50.2c0,0.3,0,0.5,0,0.8c0,0.2,0,0.4,0.1,0.5c0,0.1,0.1,0.1,0.2,0.2
		c0-0.1,0.1-0.1,0.1-0.2c0-0.2,0.1-0.3,0.3-0.2c0.4,0,0.7,0.1,1.1,0.1c0,0,0.1,0.1,0.1,0.1c0,0-0.1,0.1-0.1,0.1
		c-0.4-0.1-0.7,0.3-1,0.4c-0.5,0.2-1.1,0.4-1.7,0.4c-0.4,0-0.8,0-1.1-0.3c-0.2-0.2-0.5-0.1-0.7,0.1c-0.3,0.2-0.6,0.4-0.9,0.6
		c-0.4,0.3-0.8,0.5-1.3,0.8c-0.3,0.2-0.7,0.4-1,0.6c-0.2,0.1-0.5,0.2-0.6,0.4c-0.3,0.3-0.6,0.3-0.9,0.6c-0.2,0.2-0.6,0.3-0.9,0.5
		c0,0-0.1,0-0.1,0C48.4,56,48,56,47.8,56.2c-0.6,0.6-1.3,1.2-1.9,1.8c-0.3,0.3-0.6,0.7-0.9,1c-0.3,0.3-0.6,0.6-0.9,0.9
		c-0.2,0.2-0.3,0.4-0.5,0.6c-0.4,0.5-0.8,0.9-1.2,1.4c-0.5,0.6-1,1.1-1.4,1.7c-0.2,0.2-0.3,0.4-0.5,0.6c-0.5,0.6-1,1.2-1.5,1.8
		c-0.6,0.6-1.1,1.3-1.7,1.9c-0.2,0.2-0.3,0.4-0.4,0.6c-0.1,0.1,0,0.3,0,0.5c0,0,0.1,0,0.1,0c0.1-0.2,0.2-0.1,0.4-0.2
		c0,0,0.1,0,0.1-0.1c0.3-0.2,0.5-0.4,0.9-0.3c0,0,0.1,0,0.1-0.1c0.1-0.4,0.5-0.2,0.7-0.4c0.1-0.1,0.3,0,0.4-0.2
		c0-0.1,0.4-0.1,0.6-0.1c0.1,0,0.2,0.1,0.2,0.1c-0.1,0-0.2,0.1-0.3,0.1c-0.2,0.1-0.5,0-0.6,0.3c0,0-0.1,0.1-0.2,0.1
		c-0.2,0.1-0.4,0-0.5,0.3c0,0,0,0.1-0.1,0.1c-0.3,0.1-0.7,0.3-1,0.4c-0.1,0-0.2,0.2-0.3,0.2c0,0-0.1,0.1-0.1,0.1
		c-0.3,0-0.5,0.2-0.7,0.4C36.2,70,36,70.6,35.5,71c-0.4,0.3-0.6,0.7-0.9,1c-0.5,0.5-1,0.9-1.4,1.3c-0.2,0.2-0.3,0.4-0.5,0.5
		c-0.2,0.2-0.4,0.4-0.6,0.6c-0.3,0.3-0.6,0.6-0.9,0.9c-0.3,0.3-0.6,0.5-0.9,0.8c-0.3,0.2-0.6,0.4-0.9,0.6c-0.2,0.1-0.3,0.1-0.5,0.1
		c-0.2,0.1-0.3,0.1-0.5,0.2c-0.2,0.1-0.4,0.1-0.5,0.2C27.7,77.3,27.7,77.3,27.6,77.3 M45,58.2c0.1-0.1,0.2-0.2,0.3-0.3
		c0.2-0.2,0.3-0.5,0.6-0.7c0.3-0.3,0.7-0.7,1.1-1c0.3-0.2,0.6-0.4,0.9-0.7c0,0,0.1-0.1,0.1-0.1c0.3-0.3,0.7-0.6,1-0.9
		c0,0,0.1,0,0.1,0c0.1-0.1,0.2-0.1,0.3-0.2c0.2-0.2,0.5-0.5,0.7-0.5c0.4,0,0.7-0.2,0.8-0.5c0.2-0.3,0.6-0.4,0.8-0.6
		c0.1-0.1,0.2-0.2,0.3-0.3c0.1-0.1,0.1-0.2,0.2-0.3c0-0.1,0.1-0.1,0.2-0.1c0,0.1,0.1,0.1,0.1,0.2c0,0.2,0.2,0.2,0.3,0.1
		c0.1-0.2,0.3-0.2,0.5-0.3c0.1,0,0.1-0.1,0.1-0.1c0,0-0.1-0.1-0.1-0.1c-0.1,0-0.2-0.1-0.4-0.1c-0.5,0-0.9,0.3-1.3,0.5
		c-0.1,0-0.2,0.2-0.3,0.2c-0.4,0-0.6,0.3-0.9,0.5c-0.2,0.1-0.4,0.3-0.6,0.4c-0.1,0.1-0.2,0.3-0.3,0.2c-0.4-0.1-0.5,0.3-0.8,0.4
		c-0.4,0.2-0.8,0.4-1.2,0.7c-0.2,0.1-0.3,0.2-0.5,0.3c-0.2,0.1-0.5,0.2-0.7,0.4c-0.2,0.2-0.5,0.4-0.6,0.8c0,0-0.1,0.1-0.1,0.1
		c-0.2,0.2-0.4,0.5-0.5,0.7c0,0.3-0.3,0.5-0.4,0.8c-0.3,0.4-0.7,0.8-1,1.2c-0.4,0.5-0.8,0.9-1.2,1.4c-0.2,0.2-0.4,0.4-0.5,0.6
		c-0.4,0.5-0.8,0.9-1.2,1.4c-0.2,0.3-0.4,0.5-0.6,0.8c-0.3,0.4-0.6,0.7-0.9,1.1c-0.3,0.3-0.6,0.6-0.8,0.9c-0.4,0.5-0.9,1.1-1.3,1.6
		c-0.1,0.1-0.2,0.3-0.3,0.4c-0.3,0.3-0.5,0.5-0.8,0.8c0,0,0,0.1-0.1,0.2c0.1,0,0.1,0,0.2,0c0.1,0,0.2,0,0.3-0.1
		c0.4-0.5,0.8-1,1.2-1.5c0.2-0.2,0.4-0.5,0.6-0.7c0.3-0.4,0.6-0.8,0.9-1.1c0.3-0.3,0.6-0.6,0.8-0.9c0.3-0.4,0.6-0.8,0.9-1.2
		c0.2-0.3,0.5-0.5,0.7-0.7c0.4-0.4,0.7-0.9,1.1-1.4c0.4-0.5,0.8-0.9,1.2-1.3C44.5,58.8,44.7,58.5,45,58.2 M82.7,34.5
		c0.3-0.2,0.5-0.4,0.8-0.6c0.4-0.3,0.7-0.6,1.1-1c0.4-0.4,0.9-0.8,1.3-1.2c0.1-0.1,0.1-0.2,0.1-0.3c0-0.1,0-0.2-0.1-0.2
		c0-0.1-0.1-0.1-0.1-0.2c0,0-0.1,0.1-0.1,0.1c0,0.3-0.1,0.6-0.3,0.9c-0.4,0.4-0.8,0.7-1.2,1c-0.4,0.2-0.7,0.4-1.1,0.7
		c-0.5,0.4-0.9,0.9-1.3,1.4c-0.1,0.1-0.1,0.3-0.1,0.4c0,0.1,0.3,0.2,0.3,0.1C82.2,35.2,82.4,34.9,82.7,34.5 M34.4,69
		c-0.2,0.1-0.5,0-0.5,0.4c0,0-0.1,0-0.2,0.1c-0.1,0-0.2,0-0.2,0c-0.1,0.1-0.2,0.1-0.2,0.2c0,0.1,0.1,0.2,0.1,0.2
		c0.2-0.1,0.5-0.1,0.7-0.3c0.1-0.1,0.2-0.2,0.3-0.2c0.1,0,0.3-0.1,0.4-0.2c0.1-0.2,0.4-0.5,0.7-0.5c0.3,0,0.5-0.2,0.6-0.4
		c0.1-0.1,0.3-0.4-0.2-0.4c0,0,0,0-0.1-0.1c-0.3,0-0.6,0-0.8,0.2C34.8,68.5,34.6,68.7,34.4,69 M80.2,34.8C80.2,34.9,80.1,35,80,35
		c0,0-0.1,0.1-0.1,0.1c0.1,0.1,0.5,0,0.5-0.2c0-0.2,0.1-0.4,0.1-0.7c0-0.1,0-0.3-0.1-0.3c-0.5-0.2-0.3-0.6-0.3-0.9
		c0-0.1,0-0.1,0-0.2c-0.1,0-0.2,0-0.2,0c-0.1,0-0.1,0.1-0.1,0.2c0,0.1,0,0.3,0,0.4c0,0.2,0.1,0.3,0.1,0.5
		C80.1,34.2,80.3,34.5,80.2,34.8 M56.7,51.8c0.1-0.2,0-0.2-0.2-0.2c-0.3,0-0.5,0.1-0.8,0.1c-0.1,0-0.1,0.1-0.2,0.1
		c0.1,0.1,0.1,0.1,0.2,0.2c0.2,0,0.5,0,0.7,0C56.5,52,56.6,51.9,56.7,51.8 M55.2,50.3c-0.2,0-0.3,0-0.5,0c-0.1,0-0.1,0.2-0.1,0.3
		c0,0,0.1,0.1,0.1,0.1c0.2,0,0.4-0.1,0.6-0.1c0.1,0,0.2-0.1,0.2-0.1C55.4,50.4,55.3,50.4,55.2,50.3 M55.4,48.8c0,0.1,0,0.2,0.1,0.2
		c0,0,0.1,0,0.1,0c0,0,0.1-0.1,0.1-0.1c0-0.2-0.4-0.5-0.6-0.5c-0.1,0-0.1,0.1-0.2,0.1c0,0.1,0.1,0.1,0.1,0.1
		C55.1,48.8,55.2,48.8,55.4,48.8 M81.9,33.1c0-0.2,0-0.4,0-0.5c0,0-0.1-0.1-0.1-0.1c-0.1,0-0.1,0.1-0.1,0.1
		C81.6,32.8,81.6,33,81.9,33.1 M53.9,51.2c0.1-0.1,0.1-0.1,0.2-0.2c-0.1,0-0.2-0.1-0.3,0c-0.1,0-0.2,0-0.3,0.1
		c-0.1,0-0.1,0.1-0.1,0.2c0.1,0,0.1,0.1,0.2,0.1C53.7,51.3,53.8,51.3,53.9,51.2 M27.1,76.9c0.1,0,0.2,0,0.3,0c0,0,0.1-0.1,0.1-0.1
		c-0.1,0-0.1-0.1-0.2-0.1c-0.1,0-0.2,0-0.4,0c-0.1,0-0.1,0.1-0.2,0.1C26.8,76.8,26.9,76.8,27.1,76.9 M27.7,76.4c0.2,0,0.5,0,0.7,0
		c0,0,0-0.1,0-0.1c0,0-0.1-0.1-0.1-0.1C28.1,76.3,27.9,76.3,27.7,76.4 M8.9,83c0,0-0.1,0.1-0.1,0.1c0.1,0,0.1,0.1,0.2,0.1
		c0.2,0,0.3,0,0.5-0.1c0,0,0-0.1,0.1-0.1C9.3,83.1,9.1,83.1,8.9,83 M19.7,79.5c-0.1,0-0.3,0.1-0.4,0.1c0,0,0,0.1,0,0.1
		c0.2,0,0.3,0,0.5,0c0,0,0.1-0.1,0.1-0.1C19.8,79.5,19.8,79.5,19.7,79.5 M85.1,30.7c0.1,0,0.2,0,0.2-0.1c0,0,0.1,0,0.1-0.1
		c0,0,0-0.1,0-0.1c-0.2,0-0.3,0-0.4,0C84.8,30.6,84.8,30.7,85.1,30.7 M26.4,77c-0.1,0-0.1,0-0.2,0c-0.1,0-0.2,0.1-0.3,0.1
		c0.1,0.1,0.2,0.1,0.3,0.2c0.1,0,0.2,0,0.2-0.1C26.5,77.1,26.5,77,26.4,77 M25.4,77.3c-0.1,0-0.2,0-0.3,0c-0.1,0-0.1,0.1-0.2,0.1
		c0,0,0.1,0.1,0.1,0.1c0.2,0,0.3,0,0.5,0C25.6,77.4,25.5,77.4,25.4,77.3 M82.8,32.9c-0.1,0-0.2,0.1-0.2-0.1c0,0-0.1-0.1-0.1-0.1
		c0,0.1-0.1,0.2,0,0.3c0,0.1,0.2,0.1,0.3,0.1c0.1,0,0.2-0.1,0.2-0.1C82.9,33,82.9,32.9,82.8,32.9 M16.4,80.7c0.1,0,0.2,0,0.3,0
		c0.1,0,0.1-0.1,0.2-0.1c-0.1,0-0.1-0.1-0.2-0.1c-0.1,0-0.2,0-0.4,0c-0.1,0-0.1,0.1-0.2,0.1C16.2,80.7,16.3,80.7,16.4,80.7
		 M10.2,82.9c0.1,0,0.3,0,0.4,0c0,0,0-0.1,0.1-0.1c-0.2,0-0.4,0-0.6,0C10.1,82.8,10.1,82.8,10.2,82.9 M83.5,32.2
		c-0.1,0.1,0,0.2,0.1,0.2c0.1,0,0.2-0.1,0.3-0.1c-0.1,0-0.1-0.1-0.2-0.1C83.7,32.2,83.6,32.2,83.5,32.2 M24.7,77.8
		c-0.2,0-0.3-0.1-0.5-0.1c0,0-0.1,0.1-0.1,0.1c0,0,0.1,0.1,0.1,0.1C24.3,77.9,24.5,77.9,24.7,77.8 M17.5,80.2
		c-0.1,0.2,0.1,0.2,0.2,0.2c0.1,0,0.2-0.1,0.2-0.1c-0.1,0-0.1-0.1-0.2-0.1C17.7,80.2,17.6,80.2,17.5,80.2 M29,75.9
		c-0.1,0-0.1,0.1-0.2,0.1c0.1,0,0.2,0,0.3,0.1c0,0,0,0,0,0c0.1,0,0.2,0,0.3,0c-0.1,0-0.2-0.1-0.3-0.1C29.1,75.9,29.1,75.9,29,75.9
		 M21.3,78.9c0.2,0,0.3,0.1,0.5,0.1c0,0,0-0.1,0-0.1C21.7,78.8,21.5,78.8,21.3,78.9C21.3,78.8,21.3,78.8,21.3,78.9 M82.2,33.2
		c-0.1,0-0.2,0.1-0.3,0.1c0,0.1,0.1,0.1,0.1,0.2c0.1,0,0.2,0,0.3,0C82.3,33.4,82.3,33.3,82.2,33.2 M31,74.6c0-0.1,0-0.1,0-0.2
		c0,0-0.1,0-0.1,0.1c-0.1,0.1-0.2,0.1-0.3,0.2c0,0,0,0.1,0,0.1c0,0,0.1,0,0.1,0C30.7,74.8,30.8,74.7,31,74.6 M18.4,80
		c0.1,0,0.2,0,0.4,0c0,0,0.1,0,0.1,0c0,0,0-0.1,0-0.1C18.6,79.8,18.5,79.7,18.4,80 M32.4,73.1c-0.1,0.1-0.1,0.1-0.2,0.2
		c0,0,0.1,0.1,0.1,0.1c0.1,0,0.2,0,0.2-0.1C32.5,73.2,32.4,73.1,32.4,73.1 M58,46.9c0,0,0-0.1,0-0.1c-0.1,0-0.2,0-0.2,0
		c0,0-0.1,0.1-0.1,0.1c0,0,0.1,0.1,0.1,0.1C57.9,47,57.9,47,58,46.9 M83.6,31.7c0-0.1,0.1-0.1,0.1-0.2c0,0-0.1-0.1-0.1-0.1
		c-0.1,0-0.1,0.1-0.2,0.1C83.5,31.6,83.6,31.7,83.6,31.7 M81.4,32.5c0.1-0.1,0.1-0.1,0.2-0.2c0,0-0.1,0-0.1-0.1
		C81.4,32.3,81.4,32.4,81.4,32.5 M20.4,79.2c0.1,0,0.2,0.1,0.3,0.1c0,0,0,0,0-0.1C20.6,79.2,20.5,79.2,20.4,79.2
		C20.4,79.2,20.4,79.2,20.4,79.2 M22.4,78.5c0.1,0,0.1,0.1,0.2,0.1c0,0,0-0.1,0-0.1C22.6,78.5,22.5,78.4,22.4,78.5 M84.3,31.8
		c0,0,0,0.1-0.1,0.1c0,0,0.1,0,0.1,0.1C84.4,31.9,84.4,31.9,84.3,31.8 M54.3,50.7c0,0-0.1,0.1-0.1,0.1c0,0,0,0,0,0
		C54.3,50.8,54.4,50.8,54.3,50.7 M31.9,73.5c0,0,0,0.1,0,0.1c0,0,0.1-0.1,0.1-0.1C32,73.5,32,73.5,31.9,73.5z"/>
	<path d="M59.6,51.2c-0.4,0.2-1.1-0.1-1.2-0.5c0-0.2,0.1-0.4,0.3-0.5c0.1-0.1,0.2-0.2,0.3-0.2c0.1,0,0.2,0,0.2,0c0,0.1,0,0.1,0,0.2
		c-0.2,0.2-0.3,0.3,0,0.5c0.2,0.2,0.3,0.4,0.6,0.3c0,0,0.1,0,0.1,0.1C59.7,51.1,59.7,51.2,59.6,51.2z"/>
	<path d="M40.8,67.4c0.2,0,0.4,0,0.6,0c0.1,0,0.1,0.1,0.1,0.1c0,0-0.1,0.1-0.1,0.1c-0.2,0-0.4,0-0.6,0c-0.1,0-0.1,0-0.2,0
		C40.6,67.5,40.7,67.4,40.8,67.4z"/>
	<path d="M58.9,47c0-0.2,0.2-0.2,0.3-0.2c0,0,0.1,0.1,0.1,0.1c0,0-0.1,0.1-0.1,0.1C59.1,47,59,47,58.9,47z"/>
	<path d="M58.1,50.9c0,0-0.1-0.1-0.1-0.2c0,0,0.1,0,0.1-0.1C58.1,50.7,58.1,50.8,58.1,50.9z"/>
</g>
</svg>
